PathFileType	4	(X/Y/Z)	Patient4_TMGait_0pt5_01_left_08.trc.trc
DataRate	CameraRate	NumFrames	NumMarkers	Units	OrigDataRate	OrigDataStartFrame	OrigNumFrames
75.268817204301	75.268817204301	7	33	mm	75.268817204301	106	       141
Frame#	Time	L.ASIS			Sacral			L.Shoulder			Chest			R.Shoulder			Neck			R.ASIS			R.Thigh.Superior			R.Thigh.Lateral			R.Thigh.Inferior			R.Patella			L.Thigh.Superior			L.Thigh.Lateral			L.Thigh.Inferior			L.Patella			L.Shank.Superior			L.Shank.Lateral			L.Shank.Inferior			R.Shank.Superior			R.Shank.Lateral			R.Shank.Inferior			R.Heel			R.Midfoot.Superior			R.Midfoot.Lateral			R.Toe			L.Heel			L.Midfoot.Lateral			L.Midfoot.Superior			L.Toe			L.Elbow			L.Wrist			R.Elbow			R.Wrist			
		X1	Y1	Z1	X2	Y2	Z2	X3	Y3	Z3	X4	Y4	Z4	X5	Y5	Z5	X6	Y6	Z6	X7	Y7	Z7	X8	Y8	Z8	X9	Y9	Z9	X10	Y10	Z10	X11	Y11	Z11	X12	Y12	Z12	X13	Y13	Z13	X14	Y14	Z14	X15	Y15	Z15	X16	Y16	Z16	X17	Y17	Z17	X18	Y18	Z18	X19	Y19	Z19	X20	Y20	Z20	X21	Y21	Z21	X22	Y22	Z22	X23	Y23	Z23	X24	Y24	Z24	X25	Y25	Z25	X26	Y26	Z26	X27	Y27	Z27	X28	Y28	Z28	X29	Y29	Z29	X30	Y30	Z30	X31	Y31	Z31	X32	Y32	Z32	X33	Y33	Z33	

106	12.135000000000	712.603138313974	973.264163050319	353.048550899031	507.845962828395	1008.161606937815	522.808358967742	663.186550623104	1451.035621851140	359.364179018249	777.823106490018	1372.012351056645	508.633143298421	703.879158146271	1432.720757948810	692.833671733263	673.083078343523	1501.869244215455	513.990781317031	742.722290783503	944.742368681170	625.053978211507	772.339501595379	741.042133181624	592.628576810673	686.505945768558	634.861560669987	651.919583538875	759.303768925690	580.094644764442	570.917820352439	754.270089800129	493.306936611255	574.874482619775	792.609913598154	782.194850601928	371.499854497267	738.132129530728	656.912060106193	297.655273842801	841.688493683851	591.869827995228	352.032423349081	857.418027182986	508.797221297592	343.779349526237	808.192361875781	436.572107934809	336.793934296458	683.172215882654	355.722206319539	293.538450579628	714.209873216500	227.235374929783	344.436989469090	726.778388078936	405.693960047567	579.788345128607	654.061806603820	300.541102314727	635.673069393616	698.796780929588	207.654037001717	571.926766330157	563.480594047551	42.843666042124	534.190117526706	735.986848290617	97.622995202177	573.337279386886	646.236467963142	36.379150703108	609.556730345706	854.499997082262	43.120825048396	601.121260839477	555.917604618936	101.454304734065	388.983411871083	619.037391467127	84.491473242110	302.090721851083	716.502602671102	125.860645318839	318.867628726226	824.655844882767	49.878114603721	277.358911869193	596.077437697256	1107.676959816936	229.135185928627	674.384882160455	858.643816215058	200.056379555595	717.225123510552	1089.599285903798	814.351997548947	924.508403142216	936.689526850707	791.893381445095	
107	12.148285714286	710.700400590949	973.350628876041	353.403469080822	506.535425698447	1008.826414155891	523.893864806636	662.282983292957	1451.227121277853	360.245720193180	777.468537799996	1371.747352563159	508.891730043541	704.521935255823	1432.434193727216	693.538785970327	672.782532880284	1501.848756344846	514.960024329980	741.747220003737	944.344998384597	625.233124925508	768.927545865950	740.158664246254	592.496197024896	681.952957388685	634.803794798810	652.353455352998	753.460385860865	579.233155272455	571.043492686168	747.431183921935	493.000311905939	574.958787581976	790.693140811809	782.642229909150	372.336350534172	736.971189204501	657.424663317110	298.006978695396	839.780963515412	592.626466017467	353.873444003269	857.177161845903	511.418523083842	345.249820786801	811.706265763457	438.510746426595	337.375822135565	692.048303824459	350.671939911888	292.969419890257	730.531900257660	223.823215756987	343.544747153784	720.066909271963	405.509298369199	579.850473787215	647.377679009544	300.346919947196	635.802811208303	692.011695191546	207.497451443199	571.862322093378	556.739802913017	42.679959493185	534.099237133214	729.114773539878	97.544594273580	573.280990625391	639.449154681200	36.322492534617	609.527047590268	847.715546269340	43.221007282173	601.175018472021	579.944384174241	88.579565991269	386.778504157582	644.437740757699	75.727178220896	300.157557235203	739.222861052576	122.670837933940	317.636148192763	851.902919032405	53.278214641472	276.483146938828	591.317920332816	1108.715977547557	230.268647453371	660.654369116496	857.467885918950	199.598343621762	721.034358518575	1088.900338043314	813.550898838887	932.461255415320	942.401196629400	788.855206491063	
108	12.161571428571	708.800612181399	973.217007862185	353.668274670171	505.165749610322	1009.372509721811	524.870400181301	661.481321663114	1451.254832096448	360.923564998782	777.133685662301	1371.313864950068	509.002962140322	705.106936768116	1432.014021116004	694.049490455717	672.520486306522	1501.686728633658	515.714616478257	740.739701913511	943.856210324088	625.374852519349	765.569056077624	739.217541813446	592.419886196505	677.456549389359	634.693994418968	652.775279816423	747.703841801484	578.363761625550	571.181082342156	740.732422354063	492.654278798323	575.056944999607	788.450961124123	782.698248098769	373.227703834047	735.430830358544	657.678158396845	298.235944968312	837.371473755411	592.995293632261	355.708399718743	856.398850690205	513.766059957758	346.730813491925	814.767026369622	440.445801362555	337.999099429311	701.053267072870	345.881472837993	292.343205321355	746.835013308593	221.218018900059	342.825585668299	713.425913306026	405.280269900171	579.896381809303	640.766655854766	300.117606830790	635.939974216462	685.245535860355	207.296148689269	571.782087348158	549.991130903233	42.513519382627	534.008649277104	722.211564511208	97.449724919327	573.206784141076	632.653200722229	36.255788905220	609.494685076398	840.921138216376	43.312207866058	601.226074435611	604.495447642920	77.102624084864	384.647980668181	670.337497853112	68.237399576033	298.491242701522	762.080940340046	120.546710206258	316.763805409753	878.921190512875	57.800047059900	276.412166659181	586.629126832918	1109.688776721933	231.104140944655	647.361904977573	856.620433397780	199.302241475985	724.738920984622	1088.027727323653	812.357595990818	940.323522122764	948.500700714553	785.252593908775	
109	12.174857142857	706.906842157049	972.891814159790	353.847589751146	503.760614690095	1009.806885391286	525.754697518464	660.778329605254	1451.135083576143	361.388150525925	776.817517803582	1370.738150095531	508.959673118123	705.636351297525	1431.493916218951	694.354617124342	672.306013516894	1501.408101706342	516.235862020613	739.714384581107	943.308679039012	625.484909070192	762.289895321287	738.240149858871	592.403534587003	673.057112787285	634.541279851408	653.180275445437	742.092617571446	577.504502999966	571.330171247763	734.237402306352	492.269735254445	575.169755001442	785.907001928518	782.425104249572	374.135267433540	733.542355916219	657.718830860852	298.330572507470	834.582083961199	593.051222046160	357.404683437568	855.170695517491	515.869160264499	348.143547434323	817.402011434165	442.413517086923	338.631323613953	710.110841896028	341.494779715293	291.680317770649	762.928970568225	219.527556119433	342.307953446834	706.902650317198	405.010099157439	579.931203136044	634.257725674488	299.867854942211	636.085106682101	678.519560973195	207.058660614290	571.694136902608	543.236135789886	42.352060951494	533.925367234169	715.285980999412	97.343190526596	573.118780071587	625.853490753313	36.182683949502	609.460210491701	834.120878675146	43.398411697143	601.274764716435	629.214184096862	67.272729315880	382.694193783972	696.393280145297	62.167459054604	297.193815207382	784.804212315758	119.559419731104	316.297981503980	905.403328754708	63.400407120015	277.216910028631	582.005550197357	1110.598697485796	231.665842063575	634.581987957590	856.058797583124	199.174325436193	728.376056480640	1087.026001491195	810.779673063567	948.063398310348	955.012851904325	781.106842494597	
110	12.188142857143	705.025308102042	972.410523800212	353.944521629358	502.353388452767	1010.136587487251	526.561935868152	660.162171764851	1450.888838207751	361.635477819039	776.515607251411	1370.051786022617	508.756526751485	706.114107014063	1430.910961407390	694.448151817781	672.139207428237	1501.040714508675	516.512824015594	738.689519057704	942.734975954963	625.562043267166	759.114943920951	737.247300141855	592.435139819625	668.799579775841	634.353854075186	653.557518614557	736.682895346651	576.669938703463	571.479553708635	728.005703687180	491.847487393313	575.288548759215	783.115214249837	781.895609151136	375.006484596508	731.355035075936	657.588490917877	298.296390306072	831.554476398938	592.869891379535	358.844827849612	853.595799776104	517.754482604258	349.423158890520	819.647118785298	444.427897242400	339.243807516805	719.106618881466	337.614591656791	291.014075438337	778.600635993004	218.779449362330	342.002056549897	700.545702208125	404.701162741266	579.954910905246	627.881204581797	299.611973954814	636.234386582150	671.855862830112	206.793371106740	571.603009842420	536.477132300573	42.202983377292	533.854562239643	708.348019730359	97.229319277277	573.020377369420	619.054856995341	36.106894664261	609.422914010330	827.319460947698	43.482315920137	601.320613253955	653.685408551366	59.224795039223	381.008647866822	722.194304819647	57.551506131545	296.337675003946	807.081900496244	119.678632480810	316.246920807149	931.020316594721	69.920387206757	278.885379111393	577.445618337202	1111.451206531128	231.983737870556	622.376866827690	855.737416110067	199.218999733909	731.984163016489	1085.946780151328	808.831906142114	955.645548563928	961.947252730186	776.449953019079	
111	12.201428571429	703.168104004604	971.811073171661	353.959877835427	500.987299869412	1010.365063817066	527.303980165027	659.612114264778	1450.538931670536	361.666953787376	776.219938318239	1369.288569839864	508.389883137484	706.544390617649	1430.301435080122	694.328947116796	672.010463551171	1500.611829316607	516.542899866770	737.686804876995	942.164456335489	625.598853734462	756.069451994496	736.257836592602	592.489378400990	664.732032035860	634.138113913825	653.891596578624	731.527061678527	575.869568136771	571.609809503533	722.090511298258	491.387505167887	575.396769998937	780.162525637225	781.187820470369	375.780487369229	728.936902170763	657.319465049568	298.157316168798	828.441932487486	592.521310927858	359.940085509969	851.791157001808	519.442111140021	350.522960070217	821.544972926365	446.475811640395	339.814111822451	727.889337898349	334.298436510318	290.391822682218	793.615132437336	218.919805501235	341.902471633197	694.402707348457	404.354322524084	579.962578024103	621.668169906261	299.362749740772	636.380614089386	665.276641005361	206.507565451506	571.509676274726	529.716897561200	42.073371783408	533.799440457203	701.408618693149	97.111886025148	572.914474407522	612.261739680239	36.032221225573	609.381515337210	820.521708753321	43.564083402170	601.362442347137	677.446286772330	52.978643897113	379.673484472324	747.265324799888	54.319746585241	295.963499315256	828.563646421643	120.778064506878	316.580926289945	955.413793047021	77.093923781537	281.314189686758	572.951476396857	1112.251249559601	232.091647069280	610.797331628106	855.609578800536	199.437492884623	735.600607828398	1084.844971606659	806.536997955930	963.033513661732	969.296237787469	771.325020361470	
112	12.214714285714	701.355583726256	971.129399862504	353.891730930989	499.713785763584	1010.489594908993	527.987536103137	659.099314189301	1450.107433830435	361.488687767235	775.919035062983	1368.481701506429	507.857713498967	706.929635821532	1429.696947781090	694.000109106389	671.900653588769	1500.144963927380	516.331463645420	736.730871580722	941.620506854500	625.583408682642	753.179926009470	735.287300439110	592.531953596636	660.902575835207	633.898115690055	654.164835566598	726.671298192588	575.106797518683	571.697030483335	716.535308373863	490.888344490623	575.472444707204	777.166384540072	780.378691881472	376.394918776913	726.372919544130	656.931189844869	297.953626181521	825.398941911575	592.064389450978	360.639801923564	849.883225396877	520.942320580716	351.415957165788	823.141736695788	448.514688538312	340.328296348497	736.277055498081	331.556623264063	289.872868751491	807.720381483101	219.817395115747	341.993686209571	688.516762224056	403.968797239594	579.945283382758	615.648617834652	299.130595008839	636.514538798750	658.802796432812	206.206825348030	571.411976573056	522.958305256301	41.969787622588	533.761384943370	694.479121628092	96.994213674711	572.803821698664	605.477864198252	35.962599161131	609.335135642222	813.732002933862	43.640848052374	601.398607982032	700.002458677124	48.444638048134	378.762306204515	771.079591807697	52.311276520644	296.081801139911	848.865259687483	122.647122962587	317.240291658007	978.197458893430	84.565062258387	284.316453236166	568.528151054168	1113.000989543540	232.025396079993	599.883463729225	855.628700780061	199.826416924604	739.259744461422	1083.774929856428	803.925693781655	970.192282443460	977.034380893604	765.785690996565	
